<svg aria-hidden="true" style="position: absolute; width: 0; height: 0; overflow: hidden;" version="1.1" xmlns="http://www.w3.org/2000/svg" xmlns:xlink="http://www.w3.org/1999/xlink">
<defs>
<symbol id="my-logo" viewBox="0 0 32 32">
<path d="M16.16 8.159c0.025 0.006 0.050 0.012 0.076 0.019 0.528 0.135 1.032 0.374 1.468 0.702 0.026 0.019 0.026 0.019 0.053 0.039 0.226 0.182 0.356 0.452 0.448 0.722 0.006 0.017 0.013 0.034 0.019 0.052 0.094 0.288 0.090 0.626 0.081 0.928-0.001 0.029-0.001 0.029-0.002 0.059-0.007 0.222-0.016 0.442-0.038 0.662 0.018 0.004 0.035 0.008 0.054 0.012 0.095 0.040 0.145 0.102 0.189 0.195 0.070 0.206-0.009 0.454-0.095 0.644-0.062 0.12-0.134 0.234-0.204 0.348-0.015 0.025-0.030 0.050-0.046 0.075-0.023 0.038-0.046 0.076-0.070 0.114-0.048 0.079-0.096 0.158-0.143 0.236-0.236 0.39-0.474 0.758-0.784 1.094 0.054 0.098 0.113 0.19 0.179 0.282 0.008 0.012 0.017 0.023 0.025 0.036 0.294 0.41 0.828 0.488 1.298 0.596 0.078 0.018 0.155 0.036 0.234 0.055 0.019 0.004 0.038 0.009 0.057 0.013 0.129 0.030 0.258 0.061 0.386 0.093 0.016 0.004 0.032 0.008 0.048 0.012 0.306 0.076 0.574 0.208 0.814 0.416 0.012 0.010 0.025 0.021 0.037 0.032 0.424 0.388 0.516 1.028 0.542 1.568 0.002 0.095 0.002 0.191 0.002 0.286-0 0.027-0 0.053-0 0.080-0 0.070-0.001 0.141-0.001 0.21-0 0.042-0 0.085-0.001 0.127-0.001 0.155-0.002 0.31-0.003 0.466-0.001 0.072-0.001 0.144-0.002 0.216s-0.001 0.143-0.002 0.214c-0 0.039-0 0.079-0.001 0.118-0.003 0.164-0.020 0.278-0.131 0.406-0.171 0.142-0.32 0.159-0.538 0.156-0.018-0-0.035-0-0.053-0-0.043-0-0.086-0.001-0.129-0.001 0.011-0.202 0.038-0.4 0.067-0.6 0.045-0.314 0.087-0.626 0.124-0.942 0.034-0.288 0.073-0.576 0.117-0.862 0.086-0.416 0.086-0.416-0.014-0.804-0.093-0.086-0.192-0.1-0.314-0.099-0.016-0-0.032-0-0.048-0-0.053-0-0.106-0-0.159-0-0.038-0-0.076-0-0.114-0.001-0.103-0.001-0.206-0.001-0.31-0.001-0.108-0-0.216-0.001-0.324-0.001-0.204-0.001-0.408-0.001-0.612-0.002-0.232-0.001-0.466-0.001-0.698-0.002-0.478-0.002-0.956-0.003-1.434-0.004-0.029-0.058-0.009-0.089 0.011-0.15 0.151-0.428 0.506-0.61 0.888-0.814 0.126-0.070 0.214-0.127 0.284-0.256-0.003-0.067-0.048-0.109-0.089-0.159-0.019-0.023-0.037-0.046-0.056-0.069-0.009-0.012-0.019-0.024-0.029-0.036-0.045-0.057-0.086-0.117-0.127-0.177-0.046-0.067-0.092-0.134-0.141-0.199-0.083 0.025-0.155 0.057-0.232 0.099-0.338 0.172-0.766 0.181-1.128 0.086-0.194-0.066-0.372-0.17-0.542-0.284-0.007 0.019-0.014 0.039-0.021 0.059-0.059 0.164-0.125 0.32-0.206 0.474-0.052 0.098-0.052 0.098-0.073 0.206 0.108 0.254 0.468 0.426 0.688 0.572 0.524 0.346 0.524 0.346 0.612 0.568v0.080c-0.031 0-0.031 0-0.062 0-0.5 0.001-1.002 0.002-1.502 0.004-0.242 0.001-0.484 0.001-0.726 0.002-0.212 0-0.422 0.001-0.634 0.002-0.112 0-0.224 0.001-0.336 0.001-0.105 0-0.21 0-0.316 0.001-0.039 0-0.077 0-0.116 0-0.053-0-0.106 0-0.158 0.001-0.015-0-0.030-0-0.046-0-0.109 0.002-0.173 0.029-0.264 0.091-0.106 0.119-0.089 0.26-0.083 0.412 0.009 0.146 0.033 0.292 0.055 0.436 0.017 0.11 0.032 0.22 0.048 0.328 0.005 0.034 0.005 0.034 0.010 0.070 0.038 0.266 0.071 0.534 0.104 0.8 0.012 0.094 0.023 0.188 0.035 0.282 0.003 0.022 0.005 0.044 0.008 0.067 0.025 0.204 0.053 0.408 0.082 0.612 0.003 0.020 0.006 0.040 0.009 0.061 0.002 0.017 0.005 0.034 0.007 0.051 0.005 0.042 0.005 0.042 0.005 0.102-0.060 0.001-0.119 0.002-0.179 0.003-0.017 0-0.033 0.001-0.050 0.001-0.181 0.001-0.35-0.021-0.49-0.144-0.089-0.113-0.122-0.21-0.13-0.354-0.001-0.013-0.002-0.027-0.002-0.041-0.003-0.045-0.005-0.090-0.007-0.135-0.002-0.032-0.004-0.063-0.005-0.095-0.004-0.067-0.007-0.134-0.011-0.2s-0.007-0.135-0.011-0.202c-0.069-1.2-0.069-1.2 0.007-1.634 0.002-0.014 0.005-0.028 0.007-0.042 0.086-0.482 0.346-0.898 0.75-1.18 0.113-0.074 0.228-0.129 0.356-0.176 0.018-0.007 0.036-0.014 0.055-0.021 0.208-0.076 0.42-0.126 0.634-0.174 0.039-0.009 0.078-0.018 0.117-0.027 0.058-0.013 0.116-0.027 0.173-0.040 0.33-0.076 0.652-0.155 0.968-0.28 0.023-0.009 0.046-0.018 0.070-0.027 0.158-0.073 0.212-0.174 0.27-0.332 0.006-0.015 0.011-0.030 0.017-0.045 0.018-0.048 0.035-0.097 0.052-0.145 0.005-0.016 0.011-0.031 0.016-0.047 0.005-0.015 0.010-0.030 0.015-0.045 0.004-0.013 0.009-0.026 0.013-0.040 0.008-0.046 0.003-0.074-0.013-0.118-0.032-0.043-0.064-0.085-0.099-0.126-0.186-0.23-0.34-0.482-0.496-0.732-0.057-0.090-0.114-0.18-0.172-0.27s-0.115-0.181-0.173-0.272c-0.009-0.015-0.019-0.030-0.029-0.045-0.165-0.26-0.312-0.544-0.24-0.862 0.043-0.123 0.103-0.198 0.212-0.266 0.014-0.009 0.029-0.018 0.044-0.027 0.011-0.007 0.022-0.013 0.033-0.020-0.001-0.022-0.003-0.044-0.004-0.066-0.015-0.244-0.019-0.488-0.019-0.732-0-0.062-0-0.125-0.001-0.187-0-0.040-0-0.081-0-0.121-0-0.018-0-0.036-0-0.055 0.002-0.442 0.173-0.852 0.476-1.172 0.177-0.168 0.376-0.294 0.59-0.408 0.027-0.014 0.027-0.014 0.055-0.029 0.131-0.067 0.266-0.124 0.404-0.171 0.014-0.026 0.027-0.053 0.040-0.080 0.015-0.025 0.030-0.049 0.046-0.072 0.012-0.018 0.012-0.018 0.024-0.036 0.154-0.161 0.5-0.039 0.686 0.007zM14.184 10.579c0.011 0.112 0.022 0.224 0.033 0.336 0.004 0.038 0.008 0.076 0.011 0.114 0.005 0.055 0.011 0.109 0.016 0.164 0.002 0.017 0.003 0.034 0.005 0.051 0.009 0.086 0.019 0.171 0.034 0.256-0.023-0.004-0.045-0.008-0.069-0.012-0.119-0.015-0.222 0.010-0.33 0.060-0.056 0.044-0.077 0.086-0.088 0.156-0.005 0.304 0.183 0.564 0.342 0.812 0.012 0.019 0.025 0.038 0.037 0.058 0.084 0.13 0.169 0.26 0.256 0.388 0.040 0.060 0.080 0.12 0.119 0.18 0.3 0.458 0.63 0.948 1.202 1.070 0.376 0.061 0.756 0.009 1.072-0.212 0.165-0.122 0.298-0.256 0.42-0.42 0.016-0.021 0.031-0.041 0.047-0.063 0.13-0.177 0.246-0.362 0.362-0.548 0.033-0.052 0.066-0.104 0.099-0.156 0.366-0.506 0.366-0.506 0.536-1.088 0-0.015 0-0.029 0-0.045-0.003-0.047-0.003-0.047-0.045-0.1-0.056-0.019-0.091-0.022-0.149-0.022-0.017 0-0.034 0-0.051 0-0.026 0-0.026 0-0.053 0.001s-0.027 0-0.054 0c-0.044 0-0.088 0.001-0.132 0.001 0.015-0.072 0.031-0.143 0.046-0.216 0.007-0.032 0.007-0.032 0.014-0.064 0.028-0.127 0.056-0.252 0.090-0.378 0.012-0.050 0.012-0.050 0.010-0.124-0.018 0-0.036 0.001-0.055 0.001-0.069 0.001-0.138 0.002-0.206 0.002-0.029 0-0.059 0.001-0.088 0.001-0.368 0.006-0.712-0.065-1.068-0.152-0.033-0.008-0.067-0.016-0.1-0.024-0.138-0.033-0.276-0.067-0.414-0.101-0.019-0.005-0.037-0.009-0.056-0.014-0.032-0.008-0.064-0.016-0.096-0.024-0.244-0.060-0.488-0.078-0.74-0.077-0.022 0-0.022 0-0.044 0-0.334 0.001-0.606 0.055-0.912 0.187z"></path>
<path d="M2.080 20.68c0.022 0.001 0.022 0.001 0.045 0.002 0.078 0.030 0.111 0.109 0.143 0.182 0.022 0.055 0.043 0.111 0.064 0.166 0.012 0.031 0.012 0.031 0.024 0.063 0.026 0.068 0.052 0.136 0.077 0.204 0.018 0.047 0.036 0.094 0.054 0.14 0.036 0.095 0.072 0.189 0.108 0.284 0.068 0.18 0.137 0.36 0.206 0.538 0.019 0.050 0.038 0.1 0.058 0.15 0.012 0.030 0.023 0.060 0.035 0.090 0.005 0.014 0.010 0.027 0.016 0.041 0.027 0.069 0.027 0.069 0.058 0.137 0.062-0.156 0.125-0.312 0.187-0.466 0.015-0.038 0.030-0.076 0.046-0.114 0.1-0.25 0.2-0.498 0.296-0.748 0.006-0.017 0.013-0.034 0.020-0.051 0.029-0.076 0.058-0.153 0.087-0.23 0.010-0.027 0.020-0.054 0.031-0.080 0.009-0.023 0.017-0.045 0.026-0.068 0.040-0.091 0.081-0.163 0.163-0.222 0.088-0.029 0.135-0.023 0.224-0.001 0.079 0.071 0.080 0.173 0.093 0.272 0.004 0.029 0.004 0.029 0.008 0.059 0.006 0.042 0.012 0.085 0.018 0.127 0.009 0.067 0.019 0.134 0.028 0.202 0.027 0.191 0.054 0.382 0.080 0.572 0.016 0.117 0.033 0.234 0.050 0.35 0.006 0.044 0.013 0.089 0.019 0.133 0.008 0.062 0.017 0.124 0.026 0.187 0.004 0.027 0.004 0.027 0.007 0.056 0.018 0.117 0.045 0.179 0.131 0.262 0.022 0.013 0.044 0.026 0.066 0.040 0.018 0.013 0.035 0.026 0.054 0.040 0.003 0.062 0.003 0.062 0 0.12-0.168 0.062-0.34 0.114-0.52 0.080-0.057-0.044-0.078-0.071-0.096-0.141-0.003-0.024-0.006-0.048-0.009-0.073-0.003-0.020-0.003-0.020-0.005-0.040-0.006-0.044-0.011-0.088-0.016-0.132-0.004-0.031-0.008-0.062-0.011-0.093-0.010-0.082-0.020-0.163-0.029-0.246s-0.020-0.164-0.030-0.246c-0.013-0.107-0.026-0.214-0.039-0.322-0.007-0.055-0.013-0.11-0.020-0.166-0.003-0.029-0.007-0.058-0.010-0.087-0.005-0.045-0.011-0.089-0.016-0.134-0.003-0.026-0.006-0.052-0.009-0.079-0.006-0.060-0.006-0.060-0.029-0.102-0.006 0.015-0.012 0.031-0.019 0.046-0.058 0.146-0.117 0.292-0.176 0.44-0.030 0.075-0.060 0.15-0.090 0.226-0.073 0.184-0.147 0.368-0.22 0.55-0.015 0.036-0.029 0.072-0.044 0.109-0.025 0.062-0.050 0.123-0.075 0.185-0.007 0.018-0.014 0.035-0.021 0.053-0.088 0.218-0.088 0.218-0.155 0.25-0.067 0.008-0.067 0.008-0.14 0-0.062-0.065-0.097-0.13-0.13-0.212-0.009-0.023-0.019-0.046-0.028-0.070-0.010-0.026-0.020-0.052-0.031-0.077-0.011-0.027-0.022-0.054-0.033-0.081-0.032-0.080-0.064-0.16-0.096-0.24-0.025-0.064-0.051-0.128-0.076-0.192-0.123-0.308-0.244-0.618-0.366-0.926-0.066 0.254-0.117 0.51-0.169 0.766-0.011 0.056-0.023 0.112-0.035 0.168-0.014 0.068-0.028 0.136-0.042 0.204-0.008 0.038-0.016 0.077-0.024 0.115-0.005 0.023-0.009 0.046-0.014 0.070-0.004 0.020-0.008 0.041-0.013 0.062-0.004 0.060 0.002 0.085 0.036 0.134 0.048 0.035 0.048 0.035 0.102 0.065 0.027 0.016 0.027 0.016 0.055 0.032 0.014 0.008 0.028 0.015 0.042 0.023-0.007 0.033-0.013 0.066-0.020 0.1-0.166 0.050-0.326 0.080-0.5 0.060-0.040-0.040-0.040-0.040-0.043-0.078 0.017-0.182 0.057-0.358 0.096-0.536 0.013-0.059 0.026-0.118 0.038-0.178 0.036-0.168 0.072-0.336 0.109-0.504 0.022-0.103 0.045-0.206 0.067-0.31 0.008-0.039 0.017-0.078 0.026-0.118 0.012-0.055 0.024-0.109 0.035-0.164 0.005-0.024 0.005-0.024 0.011-0.049 0.017-0.080 0.029-0.146 0.001-0.224-0.036-0.039-0.071-0.072-0.111-0.106-0.010-0.009-0.021-0.018-0.032-0.028-0.026-0.022-0.051-0.044-0.077-0.066 0.020-0.054 0.030-0.076 0.083-0.1 0.105-0.028 0.105-0.028 0.157-0.040 0.020-0.005 0.040-0.010 0.061-0.015 0.051-0.004 0.1-0.006 0.151-0.004z"></path>
<path d="M16.9 20.76c0.042 0.031 0.042 0.031 0.064 0.098-0.002 0.093-0.021 0.124-0.081 0.194-0.068 0.064-0.115 0.097-0.208 0.109-0.071-0.009-0.071-0.009-0.121-0.055-0.014-0.020-0.028-0.039-0.043-0.060-0.097-0.138-0.097-0.138-0.244-0.206-0.148 0.002-0.262 0.015-0.374 0.119-0.084 0.095-0.12 0.182-0.116 0.31 0.018 0.126 0.086 0.212 0.182 0.29 0.089 0.064 0.189 0.11 0.288 0.158 0.612 0.31 0.612 0.31 0.738 0.634 0.047 0.158 0.020 0.31-0.040 0.46-0.105 0.185-0.25 0.29-0.45 0.348-0.302 0.075-0.68 0.071-0.956-0.081-0.116-0.076-0.22-0.177-0.272-0.306-0.002-0.047-0.002-0.093 0-0.14 0.034-0.015 0.034-0.015 0.080-0.020 0.043 0.033 0.043 0.033 0.090 0.081 0.199 0.189 0.432 0.268 0.702 0.268 0.126-0.003 0.23-0.025 0.328-0.109 0.086-0.097 0.095-0.216 0.090-0.342-0.021-0.126-0.087-0.186-0.187-0.26-0.13-0.089-0.268-0.163-0.408-0.238-0.137-0.074-0.26-0.153-0.376-0.258-0.020-0.018-0.020-0.018-0.040-0.035-0.132-0.123-0.192-0.248-0.202-0.428 0.006-0.184 0.086-0.324 0.218-0.45 0.336-0.274 0.966-0.264 1.342-0.078z"></path>
<path d="M27.5 20.62c0.051 0.048 0.060 0.077 0.068 0.147 0.001 0.027 0.001 0.053 0.001 0.080 0 0.015 0 0.029 0.001 0.044 0.001 0.048 0.001 0.097 0.001 0.145 0 0.034 0.001 0.067 0.001 0.101 0.001 0.088 0.002 0.176 0.002 0.264 0.001 0.090 0.002 0.18 0.002 0.27 0.002 0.176 0.003 0.352 0.004 0.53 0.007-0.008 0.015-0.017 0.022-0.026 0.034-0.039 0.067-0.078 0.101-0.117 0.011-0.013 0.023-0.027 0.035-0.040 0.071-0.082 0.144-0.162 0.218-0.242 0.072-0.085 0.095-0.136 0.091-0.248-0.004-0.029-0.004-0.029-0.008-0.059 0.001-0.050 0.001-0.050 0.035-0.085 0.091-0.049 0.174-0.048 0.276-0.049 0.013-0 0.027-0.001 0.041-0.001 0.099-0.001 0.099-0.001 0.147 0.037 0.007 0.010 0.014 0.020 0.021 0.030-0.054 0.234-0.276 0.392-0.446 0.548-0.067 0.062-0.131 0.127-0.195 0.192 0.149 0.318 0.496 0.864 0.81 1.026 0.044 0.015 0.086 0.026 0.131 0.035 0.030 0.007 0.030 0.007 0.061 0.014 0.019 0.003 0.019 0.003 0.039 0.006v0.060c-0.144 0.083-0.306 0.084-0.466 0.050-0.332-0.14-0.568-0.55-0.752-0.84-0.020-0.031-0.041-0.061-0.062-0.090-0.049 0-0.077 0.017-0.12 0.040 0.001 0.015 0.001 0.029 0.002 0.045 0.002 0.067 0.003 0.134 0.005 0.2 0.001 0.023 0.002 0.046 0.003 0.070 0.002 0.171 0.002 0.171-0.054 0.24-0.080 0.037-0.125 0.047-0.214 0.045-0.047-0.041-0.076-0.075-0.087-0.138-0.003-0.047-0.003-0.094-0.002-0.141 0-0.018 0-0.036 0-0.054 0-0.039 0-0.077 0.001-0.116 0.001-0.061 0.001-0.123 0.001-0.184-0-0.175 0.001-0.35 0.002-0.524 0.001-0.107 0.001-0.214 0-0.32 0-0.041 0-0.081 0.001-0.122 0.013-0.252 0.013-0.252-0.086-0.472-0.013-0.012-0.025-0.024-0.039-0.037-0.031-0.032-0.031-0.032-0.044-0.104 0.052-0.108 0.149-0.154 0.252-0.208 0.076-0.025 0.122-0.018 0.2 0z"></path>
<path d="M7.42 20.62c0.050 0.048 0.060 0.077 0.068 0.147 0.001 0.027 0.001 0.053 0.001 0.080 0 0.015 0 0.029 0.001 0.044 0.001 0.048 0.001 0.097 0.001 0.145 0 0.034 0.001 0.067 0.001 0.101 0.001 0.088 0.002 0.176 0.002 0.264 0.001 0.090 0.002 0.18 0.002 0.27 0.002 0.176 0.003 0.352 0.004 0.53 0.029-0.032 0.058-0.064 0.087-0.096 0.024-0.027 0.024-0.027 0.049-0.054 0.064-0.072 0.124-0.146 0.184-0.22 0.040-0.049 0.040-0.049 0.074-0.081 0.048-0.046 0.066-0.080 0.070-0.146-0.001-0.043-0.004-0.085-0.007-0.127 0.004-0.054 0.004-0.054 0.039-0.090 0.091-0.049 0.173-0.047 0.276-0.048 0.013-0 0.027-0 0.041-0.001 0.074-0 0.105 0.002 0.168 0.044-0.004 0.169-0.149 0.296-0.264 0.406-0.050 0.046-0.102 0.091-0.154 0.135-0.077 0.069-0.15 0.144-0.222 0.218 0.066 0.125 0.14 0.24 0.224 0.356 0.011 0.016 0.023 0.031 0.035 0.047 0.034 0.046 0.068 0.092 0.102 0.138 0.009 0.013 0.019 0.025 0.028 0.039 0.22 0.316 0.22 0.316 0.552 0.482 0.030 0.007 0.030 0.007 0.061 0.014 0.019 0.003 0.019 0.003 0.039 0.006v0.060c-0.137 0.079-0.268 0.076-0.42 0.060-0.072-0.021-0.122-0.053-0.18-0.1-0.019-0.015-0.037-0.030-0.056-0.045-0.191-0.161-0.326-0.36-0.464-0.566-0.010-0.015-0.020-0.030-0.030-0.045-0.019-0.029-0.039-0.057-0.058-0.086-0.023-0.034-0.046-0.066-0.071-0.099-0.041-0.004-0.041-0.004-0.072 0.023-0.038 0.050-0.035 0.083-0.035 0.145-0 0.021-0.001 0.042-0.001 0.064-0 0.044-0 0.089-0 0.133-0 0.021-0.001 0.042-0.001 0.064-0 0.019-0 0.039-0 0.059-0.013 0.067-0.038 0.090-0.090 0.132-0.040 0.014-0.040 0.014-0.080 0.019-0.013 0.002-0.026 0.004-0.040 0.006-0.059-0.006-0.079-0.021-0.12-0.064-0.008-0.060-0.011-0.113-0.010-0.174-0-0.018-0-0.036-0-0.054-0-0.039-0-0.077-0-0.116 0-0.061 0-0.122-0-0.183-0.001-0.108-0.001-0.216-0.001-0.324 0-0.172-0-0.344-0.001-0.516-0-0.060-0-0.12 0-0.18-0-0.037-0-0.074-0-0.111 0-0.025 0-0.025 0-0.051-0.001-0.126-0.032-0.22-0.122-0.312-0.046-0.059-0.046-0.059-0.054-0.108 0.012-0.081 0.061-0.109 0.123-0.159 0.106-0.076 0.193-0.11 0.324-0.072z"></path>
<path d="M22.68 21.34c0.040 0.003 0.040 0.003 0.080 0.020 0.068 0.087 0.093 0.198 0.112 0.304 0.005 0.036 0.005 0.036 0.028 0.056 0.007-0.013 0.014-0.026 0.021-0.040 0.086-0.152 0.179-0.276 0.35-0.332 0.178-0.035 0.354-0.030 0.508 0.071 0.174 0.125 0.284 0.288 0.32 0.5 0.023 0.314-0.014 0.612-0.216 0.866-0.157 0.17-0.352 0.242-0.578 0.26-0.117-0.003-0.232-0.037-0.344-0.066-0 0.067 0.001 0.134 0.003 0.202-0 0.019-0 0.038-0 0.057 0.003 0.123 0.022 0.188 0.112 0.274 0.026 0.028 0.026 0.028 0.030 0.081-0.052 0.105-0.135 0.168-0.244 0.208-0.061 0.007-0.12 0.009-0.18 0-0.050-0.050-0.045-0.066-0.045-0.135-0-0.020-0-0.040-0-0.061 0-0.022 0-0.044 0-0.067s-0-0.046-0-0.070c-0-0.077-0-0.154 0-0.23-0-0.053-0-0.106-0-0.16-0-0.112 0-0.224 0-0.334 0-0.129 0-0.258-0-0.388-0-0.111-0-0.222-0-0.332 0-0.066 0-0.132-0-0.199-0-0.074 0-0.148 0-0.222-0-0.022-0-0.044-0-0.067 0-0.020 0-0.040 0-0.061 0-0.017 0-0.035 0-0.053 0.005-0.042 0.005-0.042 0.045-0.082zM23.104 21.744c-0.147 0.222-0.149 0.47-0.146 0.728 0 0.028 0 0.056 0.001 0.084 0 0.068 0.001 0.136 0.002 0.204 0.178 0.052 0.344 0.095 0.526 0.040 0.137-0.102 0.214-0.214 0.254-0.38 0.004-0.015 0.007-0.029 0.011-0.045 0.034-0.21 0.043-0.476-0.079-0.658-0.062-0.078-0.118-0.131-0.22-0.145-0.16-0.002-0.25 0.043-0.35 0.172z"></path>
<path d="M6.36 21.14c0.087 0.007 0.115 0.024 0.175 0.086 0.051 0.086 0.047 0.164 0.046 0.262-0 0.018-0 0.036-0 0.054-0.014 0.782-0.406 1.602-0.966 2.14-0.146 0.129-0.318 0.234-0.516 0.244-0.070-0.006-0.099-0.031-0.144-0.084-0.067-0.099-0.067-0.185-0.060-0.3 0.095-0.022 0.095-0.022 0.14 0 0.186 0.024 0.372-0.081 0.52-0.187 0.065-0.055 0.126-0.114 0.16-0.193-0.009-0.097-0.042-0.182-0.080-0.27-0.009-0.022-0.009-0.022-0.018-0.044-0.020-0.047-0.039-0.094-0.059-0.14-0.014-0.032-0.027-0.065-0.041-0.097-0.021-0.049-0.041-0.098-0.062-0.147-0.042-0.1-0.084-0.2-0.125-0.3-0.010-0.024-0.019-0.047-0.030-0.072-0.018-0.044-0.036-0.088-0.053-0.131-0.044-0.107-0.083-0.183-0.172-0.258-0.038-0.039-0.038-0.039-0.060-0.080 0.002-0.097 0.032-0.152 0.1-0.22 0.088-0.057 0.156-0.072 0.26-0.060 0.076 0.043 0.098 0.090 0.129 0.171 0.009 0.023 0.017 0.045 0.026 0.069 0.014 0.037 0.014 0.037 0.027 0.074 0.010 0.026 0.019 0.051 0.029 0.077 0.025 0.067 0.050 0.135 0.075 0.202s0.051 0.136 0.076 0.204c0.046 0.121 0.091 0.242 0.136 0.364 0.027 0.073 0.054 0.146 0.082 0.218h0.060c0.216-0.452 0.268-0.894 0.26-1.392-0-0.021-0.001-0.043-0.001-0.065-0-0.019-0.001-0.039-0.001-0.058 0.003-0.071 0.014-0.063 0.087-0.070z"></path>
<path d="M10.56 21.48c0.195 0.125 0.31 0.304 0.372 0.524 0.018 0.286-0.018 0.49-0.196 0.722-0.193 0.216-0.434 0.304-0.716 0.326-0.256-0.009-0.51-0.096-0.704-0.266-0.184-0.222-0.236-0.436-0.22-0.72 0.035-0.226 0.167-0.412 0.348-0.546 0.352-0.23 0.75-0.24 1.118-0.041zM9.6 21.748c-0.109 0.171-0.111 0.376-0.070 0.57 0.056 0.192 0.138 0.334 0.304 0.448 0.136 0.056 0.294 0.074 0.434 0.019 0.132-0.081 0.21-0.191 0.252-0.338 0.043-0.216-0.001-0.452-0.116-0.64-0.090-0.119-0.202-0.21-0.35-0.24-0.191-0.024-0.336 0.027-0.454 0.181z"></path>
<path d="M20 21.48c0.104 0.071 0.175 0.151 0.242 0.256 0.008 0.012 0.016 0.024 0.025 0.036 0.102 0.168 0.117 0.424 0.073 0.612-0.088 0.256-0.242 0.426-0.478 0.552-0.248 0.109-0.518 0.135-0.778 0.046-0.264-0.111-0.432-0.258-0.542-0.526-0.054-0.188-0.044-0.434 0.033-0.612 0.139-0.25 0.344-0.398 0.614-0.49 0.28-0.065 0.564-0.017 0.81 0.127zM19.034 21.73c-0.081 0.119-0.102 0.22-0.1 0.36 0 0.016 0 0.032 0 0.048 0.006 0.202 0.060 0.392 0.208 0.538 0.155 0.117 0.288 0.132 0.48 0.12 0.129-0.038 0.212-0.144 0.282-0.254 0.079-0.168 0.058-0.402 0.005-0.576-0.062-0.16-0.155-0.288-0.308-0.37-0.224-0.087-0.41-0.048-0.568 0.133z"></path>
<path d="M12.86 21.34c0.032-0.001 0.032-0.001 0.065-0.001 0.202 0 0.396 0.045 0.556 0.176 0.184 0.186 0.197 0.412 0.197 0.658 0 0.032 0 0.032 0 0.065 0 0.045 0 0.090 0 0.135 0 0.069 0 0.137 0.001 0.206 0 0.044 0 0.087 0 0.131 0 0.020 0 0.041 0 0.062-0 0.019-0 0.038-0 0.058 0 0.017 0 0.034 0 0.051-0.006 0.056-0.021 0.098-0.045 0.148-0.036 0.022-0.036 0.022-0.080 0.020-0.098-0.074-0.136-0.168-0.18-0.28-0.015 0.014-0.015 0.014-0.029 0.028-0.18 0.165-0.374 0.248-0.622 0.254-0.186-0.009-0.352-0.037-0.488-0.173-0.083-0.105-0.106-0.222-0.097-0.354 0.019-0.096 0.062-0.172 0.137-0.234 0.248-0.157 0.524-0.184 0.81-0.181 0.020 0 0.041 0 0.061 0 0.050 0 0.099 0.001 0.149 0.001-0.006-0.272-0.006-0.272-0.151-0.488-0.097-0.062-0.196-0.066-0.308-0.051-0.087 0.037-0.154 0.094-0.224 0.156-0.056 0.044-0.056 0.044-0.105 0.051-0.082-0.012-0.109-0.062-0.159-0.124-0.039-0.053-0.069-0.102-0.092-0.163 0.009-0.043 0.009-0.043 0.020-0.080 0.195-0.050 0.384-0.067 0.584-0.069zM12.578 22.464c-0.034 0.068-0.037 0.132-0.022 0.204 0.044 0.071 0.080 0.109 0.154 0.149 0.144 0.024 0.268 0.007 0.388-0.077 0.083-0.070 0.163-0.147 0.198-0.252 0.001-0.035 0.002-0.069 0.001-0.104-0-0.018-0-0.036-0.001-0.055-0-0.014-0-0.027-0.001-0.042-0.264-0.008-0.512-0.016-0.718 0.175z"></path>
<path d="M25.56 21.34c0.015-0 0.031-0.001 0.046-0.001 0.055 0.009 0.069 0.023 0.102 0.067 0.008 0.054 0.008 0.054 0.008 0.119 0 0.024 0 0.049 0.001 0.074-0 0.013-0 0.026-0 0.040-0 0.041 0 0.082 0.001 0.123 0.001 0.087 0.001 0.174 0.001 0.262 0 0.101 0.001 0.202 0.002 0.302 0 0.040 0 0.081 0 0.121 0 0.025 0 0.049 0.001 0.075 0 0.022 0 0.043 0 0.066 0.009 0.067 0.028 0.105 0.068 0.159 0.072 0.045 0.135 0.044 0.218 0.031 0.141-0.036 0.242-0.108 0.322-0.23 0.033-0.071 0.045-0.126 0.045-0.204 0-0.020 0-0.040 0-0.061-0-0.022-0-0.043-0-0.065 0-0.046 0.001-0.092 0.001-0.137 0-0.072 0-0.144 0-0.216-0-0.070 0-0.139 0.001-0.208-0-0.022-0-0.043-0.001-0.065 0.002-0.149 0.002-0.149 0.061-0.216 0.054-0.027 0.086-0.036 0.146-0.034 0.023 0 0.023 0 0.046 0.001 0.040 0.007 0.040 0.007 0.080 0.047 0.004 0.051 0.006 0.1 0.006 0.15 0 0.016 0 0.031 0 0.047 0 0.051 0 0.103 0 0.154 0 0.036 0 0.071 0 0.107 0 0.075 0 0.15 0 0.224-0 0.096 0 0.192 0.001 0.288 0 0.074 0 0.147 0 0.222 0 0.035 0 0.071 0 0.106 0 0.049 0 0.099-0 0.148 0 0.015 0 0.029 0 0.044-0.001 0.1-0.001 0.1-0.038 0.148-0.010 0.007-0.020 0.013-0.030 0.020-0.124-0.060-0.153-0.157-0.2-0.28-0.012 0.017-0.023 0.035-0.035 0.052-0.132 0.158-0.35 0.212-0.546 0.232-0.132 0.007-0.26-0.030-0.366-0.111-0.097-0.1-0.119-0.184-0.118-0.318 0-0.018 0.001-0.037 0.001-0.056 0-0.040 0-0.079 0-0.119 0-0.062 0.001-0.124 0.002-0.186 0.013-0.28 0.013-0.28-0.1-0.526-0.015-0.015-0.030-0.030-0.045-0.045-0.032-0.044-0.032-0.044-0.029-0.107 0.020-0.066 0.040-0.089 0.093-0.132 0.014-0.011 0.027-0.023 0.042-0.035 0.072-0.052 0.124-0.076 0.214-0.077z"></path>
<path d="M14.54 17.16c0.704 0 0.704 0 0.804 0.070 0.009 0.011 0.018 0.023 0.027 0.035s0.019 0.022 0.028 0.034c0.060 0.112 0.045 0.254 0.045 0.378 0 0.031 0 0.031 0 0.063 0 0.044 0 0.088 0 0.131 0 0.067 0 0.133 0.001 0.2 0 0.043 0 0.085 0 0.128 0 0.020 0 0.040 0 0.060-0.001 0.278-0.001 0.278-0.094 0.37-0.244 0.149-0.5 0.051-0.812 0.051v-1.52zM14.94 17.4c-0.044 0.036-0.044 0.036-0.045 0.081 0 0.017 0 0.034 0 0.051 0 0.019 0 0.038 0 0.058 0 0.021 0 0.042 0.001 0.063s0 0.043 0 0.064c0 0.068 0.001 0.136 0.001 0.204 0 0.046 0 0.092 0.001 0.138 0 0.113 0.001 0.226 0.002 0.34 0.047 0.015 0.047 0.015 0.1 0.020 0.038-0.021 0.038-0.021 0.060-0.060 0.009-0.042 0.009-0.042 0.008-0.088 0-0.018 0.001-0.036 0.001-0.054s0-0.038 0-0.058c0-0.020 0-0.039 0-0.060 0-0.042 0-0.084 0-0.125-0-0.064 0.001-0.128 0.002-0.192 0-0.041 0-0.081 0-0.122 0-0.019 0.001-0.038 0.001-0.058-0.001-0.050-0.002-0.094-0.013-0.142-0.053-0.047-0.053-0.047-0.12-0.060z"></path>
<path d="M16.46 17.16h0.4c0.022 0.044 0.025 0.073 0.030 0.122 0.002 0.017 0.003 0.034 0.005 0.051s0.003 0.036 0.005 0.055c0.002 0.019 0.003 0.037 0.005 0.057 0.004 0.040 0.007 0.079 0.011 0.119 0.006 0.061 0.011 0.121 0.017 0.182 0.004 0.039 0.007 0.077 0.011 0.116 0.003 0.027 0.003 0.027 0.005 0.055 0.008 0.088 0.014 0.175 0.012 0.264h0.040c-0-0.017-0-0.017-0.001-0.035-0.003-0.172 0.011-0.342 0.026-0.514 0.004-0.051 0.008-0.102 0.012-0.153 0.003-0.033 0.005-0.065 0.008-0.098 0.002-0.023 0.002-0.023 0.004-0.046 0.005-0.062 0.012-0.115 0.031-0.174h0.4c-0.026 0.242-0.056 0.484-0.089 0.726-0.004 0.032-0.009 0.065-0.013 0.097-0.032 0.232-0.064 0.464-0.098 0.696h-0.6c-0.009-0.062-0.018-0.124-0.028-0.187-0.012-0.083-0.025-0.167-0.037-0.25-0.003-0.021-0.006-0.043-0.010-0.065-0.040-0.272-0.081-0.544-0.124-0.816-0.003-0.018-0.006-0.037-0.009-0.056-0.002-0.015-0.005-0.031-0.007-0.047-0.005-0.040-0.005-0.040-0.005-0.1z"></path>
<path d="M21.040 21.34c0.064 0.052 0.094 0.101 0.123 0.178 0.007 0.019 0.015 0.039 0.022 0.059 0.008 0.021 0.015 0.042 0.023 0.063s0.016 0.043 0.025 0.065c0.026 0.069 0.052 0.138 0.077 0.208s0.051 0.137 0.077 0.206c0.016 0.043 0.032 0.085 0.048 0.128 0.047 0.125 0.095 0.25 0.145 0.374 0.075-0.113 0.121-0.244 0.172-0.37 0.009-0.022 0.009-0.022 0.018-0.045 0.077-0.19 0.141-0.362 0.112-0.57-0.008-0.060-0.010-0.102 0.022-0.154 0.058-0.069 0.105-0.121 0.196-0.14 0.060-0.005 0.12-0.008 0.18 0 0.020 0.020 0.020 0.020 0.040 0.040-0.004 0.144-0.045 0.258-0.103 0.388-0.013 0.029-0.013 0.029-0.026 0.059-0.027 0.062-0.054 0.125-0.081 0.187-0.018 0.041-0.035 0.082-0.053 0.123-0.035 0.081-0.070 0.162-0.105 0.242s-0.068 0.16-0.101 0.24c-0.008 0.019-0.016 0.038-0.024 0.058-0.015 0.036-0.030 0.072-0.044 0.108-0.040 0.097-0.079 0.166-0.162 0.234-0.070 0.023-0.104 0.027-0.172-0.001-0.128-0.105-0.178-0.268-0.24-0.418-0.011-0.025-0.021-0.050-0.032-0.075-0.051-0.119-0.101-0.238-0.149-0.358-0.108-0.27-0.108-0.27-0.294-0.488-0.032-0.039-0.032-0.039-0.039-0.1 0.011-0.097 0.058-0.155 0.132-0.216 0.079-0.032 0.13-0.032 0.216-0.022z"></path>
<path d="M11.56 20.28c0.017-0 0.035-0 0.053-0 0.045 0.005 0.045 0.005 0.085 0.045 0.005 0.040 0.005 0.040 0.005 0.089 0 0.019-0 0.038-0 0.057-0 0.021-0 0.041-0.001 0.063-0 0.033-0 0.033-0 0.066-0 0.047-0 0.095-0.001 0.142-0 0.075-0 0.15-0 0.224 0 0.214 0 0.426-0.001 0.64-0.001 0.13-0.001 0.26-0 0.392 0 0.050-0 0.099-0.001 0.149-0.001 0.070-0 0.139 0 0.208-0 0.020-0.001 0.041-0.001 0.062 0.003 0.146 0.047 0.218 0.148 0.322 0.032 0.045 0.032 0.045 0.029 0.099-0.031 0.085-0.101 0.123-0.177 0.166-0.094 0.038-0.182 0.050-0.28 0.020-0.042-0.063-0.045-0.077-0.044-0.149 0-0.018 0-0.037 0-0.055 0-0.020 0-0.040 0.001-0.061s0-0.042 0-0.064c0-0.046 0-0.092 0.001-0.138 0-0.073 0-0.146 0-0.218-0-0.208-0-0.414 0.001-0.622 0.001-0.127 0.001-0.254 0-0.38-0-0.048 0-0.096 0.001-0.144 0.014-0.3 0.014-0.3-0.103-0.564-0.015-0.015-0.030-0.029-0.046-0.045-0.010-0.013-0.020-0.027-0.030-0.040 0.019-0.075 0.048-0.116 0.108-0.164 0.012-0.010 0.023-0.020 0.035-0.030 0.074-0.053 0.127-0.072 0.22-0.072z"></path>
<path d="M17.84 20.98c0.007 0.125 0.013 0.25 0.020 0.38 0.158 0.007 0.316 0.013 0.48 0.020v0.16c-0.050 0.050-0.070 0.046-0.14 0.048-0.020 0.001-0.039 0.002-0.060 0.002-0.031 0.001-0.031 0.001-0.063 0.002-0.021 0.001-0.042 0.002-0.063 0.002-0.051 0.002-0.103 0.004-0.154 0.005-0.002 0.144-0.003 0.288-0.004 0.432-0 0.049-0.001 0.098-0.002 0.147-0.001 0.070-0.001 0.141-0.002 0.21-0 0.022-0.001 0.044-0.001 0.066 0 0.031 0 0.031-0 0.062-0 0.018-0 0.036-0.001 0.054 0.013 0.064 0.038 0.088 0.090 0.128 0.12 0.005 0.199-0.050 0.298-0.114 0.043-0.026 0.043-0.026 0.083-0.026 0.015 0.119-0.015 0.181-0.084 0.278-0.081 0.098-0.166 0.18-0.296 0.202-0.127 0.002-0.216-0.027-0.32-0.1-0.084-0.090-0.103-0.154-0.102-0.276 0-0.024 0-0.047 0-0.072 0-0.026 0-0.051 0-0.077s0-0.052 0-0.079c0-0.069 0-0.139 0-0.208 0-0.071 0-0.142 0-0.212 0-0.139 0.001-0.278 0.001-0.416-0.040-0.005-0.080-0.009-0.12-0.014-0.046-0.007-0.081-0.022-0.12-0.046 0.024-0.222 0.244-0.394 0.4-0.54 0.060-0.040 0.060-0.040 0.16-0.020z"></path>
<path d="M30.64 20.48c0.036 0.077 0.043 0.11 0.017 0.191-0.013 0.027-0.026 0.053-0.039 0.079-0.007 0.014-0.014 0.029-0.021 0.044-0.023 0.047-0.046 0.094-0.069 0.14-0.016 0.033-0.032 0.065-0.048 0.098-0.032 0.065-0.064 0.131-0.096 0.196-0.058 0.119-0.114 0.24-0.169 0.36-0.019 0.042-0.038 0.083-0.057 0.125-0.014 0.031-0.014 0.031-0.028 0.062-0.063 0.137-0.127 0.274-0.191 0.412-0.055 0.118-0.109 0.236-0.164 0.352s-0.108 0.232-0.162 0.348c-0.023 0.049-0.046 0.098-0.069 0.148-0.029 0.063-0.059 0.127-0.089 0.19-0.017 0.036-0.033 0.071-0.050 0.107-0.010 0.021-0.020 0.043-0.031 0.065-0.009 0.019-0.018 0.038-0.027 0.057-0.032 0.050-0.053 0.066-0.109 0.085-0.052-0.004-0.052-0.004-0.1-0.020-0.040-0.060-0.040-0.060-0.037-0.124 0.019-0.086 0.050-0.157 0.089-0.236 0.007-0.015 0.015-0.030 0.022-0.046 0.024-0.049 0.048-0.098 0.071-0.148 0.017-0.034 0.033-0.069 0.050-0.103 0.025-0.052 0.050-0.104 0.075-0.156 0.070-0.145 0.138-0.29 0.206-0.438 0.021-0.045 0.042-0.090 0.062-0.135 0.010-0.022 0.020-0.044 0.031-0.067 0.068-0.147 0.137-0.294 0.206-0.44 0.012-0.025 0.023-0.050 0.035-0.075 0.006-0.012 0.012-0.025 0.018-0.038 0.043-0.092 0.085-0.183 0.128-0.274 0.21-0.452 0.21-0.452 0.3-0.636 0.006-0.013 0.012-0.026 0.019-0.039 0.060-0.119 0.099-0.106 0.226-0.085z"></path>
<path d="M15.68 17.16h0.64v0.3h-0.26v0.3h0.24v0.28h-0.24v0.34h0.28v0.3h-0.66v-1.52z"></path>
<path d="M1.12 21.54c0.013 0.007 0.026 0.013 0.040 0.020 0.018 0.055 0.018 0.055 0.020 0.12-0.051 0.075-0.104 0.121-0.18 0.169-0.119 0.077-0.236 0.157-0.352 0.238-0.018 0.012-0.035 0.024-0.053 0.037-0.017 0.012-0.033 0.023-0.050 0.035-0.015 0.010-0.030 0.021-0.045 0.032-0.037 0.028-0.068 0.057-0.1 0.090 0.020 0.007 0.020 0.007 0.040 0.013 0.080 0.036 0.146 0.084 0.216 0.136 0.030 0.022 0.060 0.043 0.090 0.065 0.015 0.011 0.031 0.022 0.047 0.033 0.088 0.063 0.178 0.123 0.268 0.184 0.096 0.065 0.096 0.065 0.118 0.11 0.008 0.071 0.009 0.107-0.032 0.166-0.059 0.042-0.095 0.050-0.168 0.054-0.059-0.028-0.059-0.028-0.122-0.071-0.012-0.008-0.024-0.016-0.036-0.024-0.041-0.028-0.081-0.056-0.122-0.085-0.033-0.023-0.065-0.045-0.098-0.068-0.069-0.048-0.137-0.096-0.206-0.144-0.059-0.042-0.119-0.083-0.179-0.124-0.018-0.012-0.018-0.012-0.037-0.025-0.032-0.022-0.064-0.043-0.096-0.065-0.045-0.033-0.045-0.033-0.065-0.073-0.007-0.056-0.007-0.056 0-0.12 0.076-0.088 0.167-0.152 0.262-0.218 0.016-0.011 0.031-0.022 0.047-0.034 0.051-0.036 0.101-0.072 0.152-0.108 0.018-0.013 0.036-0.025 0.054-0.038 0.054-0.038 0.108-0.076 0.162-0.114 0.017-0.012 0.034-0.024 0.051-0.036 0.232-0.162 0.232-0.162 0.372-0.152z"></path>
<path d="M31.080 21.56c0.052 0.026 0.097 0.059 0.144 0.094 0.028 0.020 0.056 0.040 0.084 0.060 0.022 0.016 0.022 0.016 0.045 0.032 0.050 0.036 0.1 0.071 0.151 0.106 0.035 0.024 0.070 0.049 0.105 0.073 0.016 0.011 0.033 0.023 0.049 0.034 0.082 0.057 0.163 0.115 0.242 0.175 0.015 0.011 0.029 0.022 0.044 0.033 0.035 0.032 0.035 0.032 0.063 0.094-0.012 0.090-0.076 0.133-0.144 0.186-0.042 0.031-0.085 0.062-0.129 0.093-0.016 0.011-0.031 0.022-0.048 0.034-0.049 0.035-0.098 0.070-0.147 0.105-0.016 0.011-0.031 0.022-0.048 0.034-0.085 0.060-0.17 0.12-0.254 0.18-0.025 0.018-0.050 0.036-0.075 0.055-0.094 0.070-0.147 0.090-0.262 0.092-0.060-0.040-0.060-0.040-0.076-0.102 0.033-0.156 0.206-0.23 0.332-0.316 0.020-0.013 0.040-0.026 0.060-0.039 0.086-0.058 0.17-0.119 0.254-0.18 0.087-0.063 0.087-0.063 0.131-0.063-0.072-0.077-0.148-0.136-0.236-0.192-0.026-0.017-0.053-0.035-0.079-0.052-0.014-0.009-0.027-0.018-0.042-0.027-0.073-0.048-0.145-0.097-0.218-0.146-0.020-0.014-0.020-0.014-0.041-0.027-0.125-0.085-0.125-0.085-0.164-0.155 0-0.071 0-0.071 0.020-0.14 0.078-0.074 0.139-0.063 0.24-0.040z"></path>
<path d="M24.7 21.34c0.060 0.040 0.060 0.040 0.080 0.1 0.002 0.037 0.002 0.074 0.002 0.111-0 0.023-0 0.045-0 0.069-0 0.025-0 0.049-0 0.074 0 0.052 0 0.104 0.001 0.156 0 0.082 0.001 0.164-0 0.246-0.001 0.079 0 0.158 0.001 0.238-0 0.024-0.001 0.049-0.001 0.074 0.002 0.12 0.006 0.194 0.089 0.284 0.019 0.017 0.019 0.017 0.039 0.034 0.030 0.035 0.030 0.035 0.036 0.088-0.007 0.059-0.021 0.073-0.066 0.11-0.1 0.078-0.189 0.117-0.316 0.119-0.064-0.021-0.064-0.021-0.097-0.068-0.037-0.104-0.033-0.2-0.032-0.31-0-0.047-0-0.094-0-0.141 0-0.074 0.001-0.147 0.001-0.222 0.001-0.071 0-0.143 0-0.214 0-0.022 0.001-0.044 0.001-0.066-0.001-0.145-0.033-0.226-0.127-0.336-0.036-0.054-0.038-0.081-0.030-0.145 0.088-0.153 0.25-0.22 0.42-0.2z"></path>
<path d="M17.86 17.060c0.045 0 0.090 0.002 0.135 0.005 0.025 0.001 0.049 0.003 0.075 0.004 0.089 0.014 0.144 0.043 0.206 0.108 0.042 0.071 0.046 0.142 0.048 0.224 0.001 0.022 0.001 0.022 0.001 0.044 0.001 0.030 0.001 0.060 0.001 0.090 0.003 0.085 0.008 0.116 0.063 0.184 0.048 0.040 0.048 0.040 0.092 0.061v0.3c-0.033 0.013-0.066 0.026-0.1 0.040-0.050 0.075-0.047 0.138-0.050 0.224-0.008 0.274-0.008 0.274-0.099 0.362-0.087 0.055-0.154 0.055-0.256 0.054-0.038-0-0.038-0-0.077-0.001-0.020-0-0.039-0-0.059-0.001v-0.26c0.034-0.014 0.034-0.014 0.069-0.028 0.072-0.024 0.072-0.024 0.091-0.072 0.005-0.075 0.008-0.149 0.010-0.224 0.010-0.079 0.028-0.129 0.070-0.196 0.044-0.028 0.044-0.028 0.080-0.040v-0.040c-0.012-0.004-0.024-0.008-0.036-0.012-0.062-0.039-0.076-0.080-0.104-0.148-0.009-0.070-0.009-0.070-0.011-0.142 0-0.117 0-0.117-0.049-0.218-0.061-0.016-0.061-0.016-0.12-0.020-0.001-0.046-0.001-0.092-0.001-0.139-0-0.026-0-0.052-0.001-0.078 0.002-0.063 0.002-0.063 0.022-0.083z"></path>
<path d="M14.16 17.060v0.3c-0.040 0.013-0.079 0.026-0.12 0.040-0.038 0.075-0.034 0.169-0.041 0.252-0.009 0.089-0.021 0.155-0.079 0.228-0.030 0.010-0.030 0.010-0.060 0.020v0.040c0.012 0.005 0.025 0.010 0.038 0.015 0.051 0.030 0.060 0.051 0.082 0.105 0.008 0.041 0.008 0.041 0.011 0.085 0.002 0.016 0.003 0.032 0.005 0.048 0.003 0.033 0.006 0.066 0.008 0.099 0.002 0.016 0.003 0.032 0.005 0.048 0.001 0.014 0.002 0.029 0.004 0.044 0.005 0.041 0.005 0.041 0.048 0.076 0.033 0.007 0.066 0.013 0.1 0.020v0.28c-0.298 0.009-0.298 0.009-0.4-0.060-0.067-0.123-0.069-0.232-0.071-0.37-0.003-0.091-0.006-0.159-0.069-0.23-0.033-0.007-0.066-0.013-0.1-0.020v-0.3c0.040-0.020 0.079-0.040 0.12-0.060 0.056-0.070 0.046-0.159 0.049-0.244 0.005-0.122 0.010-0.226 0.071-0.336 0.109-0.096 0.264-0.080 0.4-0.080z"></path>
<path d="M24.6 20.6c0.064 0.001 0.079 0.003 0.132 0.044 0.056 0.077 0.058 0.127 0.051 0.222-0.033 0.071-0.054 0.096-0.12 0.14-0.123-0.007-0.123-0.007-0.173-0.046-0.049-0.063-0.049-0.137-0.047-0.214 0.054-0.138 0.054-0.138 0.156-0.146z"></path>
</symbol>
<symbol id="github" viewBox="0 0 32 32">
<path fill="#fffefe" style="fill: var(--color1, #fffefe)" d="M16 0c-8.84 0-16 7.16-16 16 0 7.080 4.58 13.060 10.94 15.18 0.8 0.14 1.1-0.34 1.1-0.76 0-0.38-0.020-1.64-0.020-2.98-4.020 0.74-5.060-0.98-5.38-1.88-0.18-0.46-0.96-1.88-1.64-2.26-0.56-0.3-1.36-1.040-0.020-1.060 1.26-0.020 2.16 1.16 2.46 1.64 1.44 2.42 3.74 1.74 4.66 1.32 0.14-1.040 0.56-1.74 1.020-2.14-3.56-0.4-7.28-1.78-7.28-7.9 0-1.74 0.62-3.18 1.64-4.3-0.16-0.4-0.72-2.040 0.16-4.24 0 0 1.34-0.42 4.4 1.64 1.28-0.36 2.64-0.54 4-0.54s2.72 0.18 4 0.54c3.060-2.080 4.4-1.64 4.4-1.64 0.88 2.2 0.32 3.84 0.16 4.24 1.020 1.12 1.64 2.54 1.64 4.3 0 6.14-3.74 7.5-7.3 7.9 0.58 0.5 1.080 1.46 1.080 2.96 0 2.14-0.020 3.86-0.020 4.4 0 0.42 0.3 0.92 1.1 0.76 3.176-1.072 5.936-3.114 7.892-5.837s3.008-5.991 3.008-9.343c0-8.84-7.16-16-16-16z"></path>
</symbol>
<symbol id="vscode" viewBox="0 0 32 32">
<path fill="#0065a9" style="fill: var(--color2, #0065a9)" d="M29.010 5.030l-5.766-2.776c-0.326-0.157-0.692-0.209-1.048-0.148s-0.685 0.231-0.941 0.486l-18.875 17.208c-0.229 0.208-0.366 0.498-0.381 0.807s0.093 0.611 0.301 0.84c0.025 0.027 0.050 0.053 0.077 0.077l1.541 1.4c0.201 0.183 0.461 0.29 0.733 0.302s0.54-0.072 0.756-0.236l22.735-17.24c0.172-0.13 0.376-0.21 0.591-0.23s0.431 0.020 0.624 0.116 0.355 0.244 0.469 0.427c0.114 0.183 0.174 0.394 0.174 0.61v-0.067c0-0.329-0.093-0.652-0.268-0.93s-0.425-0.502-0.722-0.645z"></path>
<path fill="#007acc" style="fill: var(--color3, #007acc)" d="M29.010 26.97l-5.766 2.777c-0.326 0.156-0.692 0.208-1.048 0.147s-0.685-0.23-0.941-0.485l-18.875-17.209c-0.229-0.208-0.366-0.498-0.381-0.807s0.093-0.611 0.301-0.84c0.025-0.027 0.050-0.053 0.077-0.077l1.541-1.4c0.202-0.184 0.461-0.291 0.734-0.303s0.541 0.072 0.758 0.238l22.732 17.24c0.172 0.13 0.376 0.21 0.591 0.23s0.431-0.020 0.624-0.116 0.355-0.244 0.469-0.427c0.114-0.183 0.174-0.394 0.174-0.61v0.072c-0.001 0.328-0.095 0.649-0.269 0.927s-0.425 0.5-0.721 0.643z"></path>
<path fill="#1f9cf0" style="fill: var(--color4, #1f9cf0)" d="M23.244 29.747c-0.326 0.156-0.692 0.208-1.048 0.147s-0.685-0.23-0.941-0.485c0.144 0.142 0.326 0.238 0.524 0.276s0.403 0.018 0.589-0.059c0.186-0.077 0.346-0.208 0.458-0.376s0.173-0.365 0.174-0.566v-25.368c0-0.203-0.060-0.401-0.172-0.57s-0.273-0.3-0.46-0.377c-0.187-0.078-0.393-0.098-0.592-0.058s-0.381 0.138-0.524 0.281c0.256-0.256 0.584-0.426 0.941-0.486s0.723-0.009 1.049 0.147l5.765 2.772c0.298 0.142 0.549 0.365 0.725 0.644s0.27 0.601 0.27 0.931v18.8c0 0.329-0.093 0.652-0.268 0.931s-0.426 0.502-0.723 0.645l-5.765 2.771z"></path>
</symbol>
<symbol id="git" viewBox="0 0 32 32">
<path fill="#de4c36" style="fill: var(--color5, #de4c36)" d="M31.397 14.574l-13.972-13.971c-0.804-0.805-2.109-0.805-2.914 0l-2.901 2.901 3.68 3.68c0.855-0.289 1.836-0.095 2.518 0.587 0.685 0.686 0.878 1.675 0.581 2.533l3.547 3.547c0.858-0.296 1.848-0.104 2.534 0.582 0.958 0.957 0.958 2.509 0 3.468s-2.51 0.958-3.469 0c-0.721-0.721-0.898-1.779-0.534-2.667l-3.308-3.308-0 8.705c0.24 0.119 0.459 0.275 0.648 0.464 0.958 0.957 0.958 2.509 0 3.468-0.958 0.958-2.511 0.958-3.468 0-0.958-0.959-0.958-2.511 0-3.468 0.23-0.23 0.502-0.412 0.803-0.535v-8.786c-0.301-0.123-0.574-0.305-0.803-0.535-0.726-0.725-0.9-1.79-0.528-2.681l-3.628-3.628-9.58 9.579c-0.805 0.805-0.805 2.11 0 2.915l13.972 13.971c0.804 0.805 2.109 0.805 2.914 0l13.906-13.906c0.805-0.805 0.805-2.111 0-2.915z"></path>
</symbol>
<symbol id="js" viewBox="0 0 32 32">
<path fill="#f5de19" style="fill: var(--color6, #f5de19)" d="M2 2h28v28h-28v-28z"></path>
<path fill="#000" style="fill: var(--color7, #000)" d="M20.809 23.875c0.239 0.485 0.609 0.892 1.069 1.175s0.991 0.43 1.531 0.425c1.090 0 1.787-0.545 1.787-1.3 0-0.9-0.716-1.222-1.916-1.747l-0.658-0.282c-1.9-0.809-3.16-1.822-3.16-3.964 0-1.973 1.5-3.476 3.853-3.476 0.762-0.055 1.523 0.115 2.188 0.49s1.206 0.937 1.554 1.617l-2.057 1.315c-0.134-0.337-0.367-0.625-0.669-0.827s-0.657-0.306-1.020-0.301c-0.158-0.016-0.318 0.001-0.469 0.051s-0.29 0.13-0.409 0.236c-0.118 0.106-0.213 0.236-0.279 0.381s-0.1 0.302-0.102 0.461c0 0.789 0.489 1.109 1.618 1.6l0.658 0.282c2.236 0.959 3.5 1.936 3.5 4.133 0 2.369-1.861 3.667-4.36 3.667-0.974 0.062-1.945-0.159-2.795-0.636s-1.545-1.191-2-2.055l2.136-1.244zM11.514 24.103c0.413 0.733 0.789 1.353 1.693 1.353 0.864 0 1.41-0.338 1.41-1.653v-8.947h2.631v8.982c0 2.724-1.6 3.964-3.929 3.964-0.823 0.045-1.641-0.16-2.345-0.588s-1.263-1.060-1.602-1.812l2.142-1.299z"></path>
</symbol>
<symbol id="css" viewBox="0 0 32 32">
<path fill="#1572b6" style="fill: var(--color8, #1572b6)" d="M5.902 27.108l-2.246-24.991h24.688l-2.249 24.987-10.11 2.779-10.083-2.775z"></path>
<path fill="#33a9dc" style="fill: var(--color9, #33a9dc)" d="M16 27.759l8.17-2.246 1.922-21.353h-10.092v23.599z"></path>
<path fill="#fff" style="fill: var(--color10, #fff)" d="M16 13.214h4.090l0.282-3.139h-4.372v-3.065h7.75l-0.074 0.822-0.759 8.447h-6.917v-3.065z"></path>
<path fill="#ebebeb" style="fill: var(--color11, #ebebeb)" d="M16.019 21.174l-0.014 0.004-3.442-0.922-0.22-2.444h-3.103l0.433 4.813 6.331 1.743 0.015-0.004v-3.189z"></path>
<path fill="#fff" style="fill: var(--color10, #fff)" d="M19.827 16.15l-0.372 4.104-3.447 0.922v3.189l6.336-1.741 0.047-0.518 0.537-5.957h-3.101z"></path>
<path fill="#ebebeb" style="fill: var(--color11, #ebebeb)" d="M16.011 7.011v3.065h-7.466l-0.062-0.689-0.141-1.554-0.074-0.822h7.743zM16 13.214v3.065h-3.399l-0.062-0.689-0.14-1.554-0.074-0.822h3.675z"></path>
</symbol>
<symbol id="html" viewBox="0 0 32 32">
<path fill="#e44f26" style="fill: var(--color12, #e44f26)" d="M5.902 27.201l-2.247-25.201h24.69l-2.25 25.197-10.11 2.803-10.083-2.799z"></path>
<path fill="#f1662a" style="fill: var(--color13, #f1662a)" d="M16 27.858l8.17-2.265 1.922-21.532h-10.092v23.797z"></path>
<path fill="#ebebeb" style="fill: var(--color11, #ebebeb)" d="M16 13.407h-4.090l-0.282-3.165h4.372v-3.091h-7.75l0.074 0.83 0.759 8.517h6.917v-3.091zM16 21.434l-0.014 0.004-3.442-0.929-0.22-2.465h-3.103l0.433 4.852 6.332 1.758 0.014-0.004v-3.216z"></path>
<path fill="#fff" style="fill: var(--color10, #fff)" d="M15.989 13.407v3.091h3.806l-0.358 4.009-3.448 0.93v3.216l6.337-1.757 0.046-0.522 0.726-8.137 0.076-0.83h-7.185zM15.989 7.151v3.091h7.466l0.062-0.694 0.141-1.567 0.074-0.83h-7.743z"></path>
</symbol>
</defs>
</svg>
